<?xml version="1.0" encoding="UTF-8"?>
<svg id="Layer_2" data-name="Layer 2" xmlns="http://www.w3.org/2000/svg" viewBox="0 0 500 500">
  <defs>
    <style>
      .cls-1 {
        fill: #f1f2f2;
      }
    </style>
  </defs>
  <g id="Layer_1-2" data-name="Layer 1">
    <path class="cls-1" d="M431.25,0H68.79C30.85,0,0,30.83,0,68.75v362.5c0,37.91,30.85,68.75,68.79,68.75h362.46c37.91,0,68.75-30.84,68.75-68.75V68.75c0-37.92-30.84-68.75-68.75-68.75ZM261.6,67.78l71.23,134.54h.01c-.5-.04-1-.08-1.48-.13-.5-.04-.98-.09-1.46-.13-.48-.04-.96-.09-1.43-.13-.48-.05-.96-.09-1.42-.13-.93-.1-1.85-.19-2.76-.28-.91-.1-1.8-.19-2.67-.28-.48-.05-.96-.12-1.44-.17-.47-.05-.94-.11-1.4-.16-.73-.09-1.43-.17-2.14-.26-.45-.06-.9-.12-1.34-.18-.41-.05-.81-.1-1.2-.16-.52-.07-1.03-.14-1.54-.21-.66-.09-1.31-.2-1.95-.29-.65-.1-1.28-.21-1.9-.31-.11-.02-.22-.04-.33-.06-.36-.06-.73-.12-1.09-.18-.72-.12-1.43-.25-2.12-.38-.27-.06-.53-.11-.79-.16-.08-.01-.16-.03-.24-.05-.18-.03-.36-.07-.53-.1-.02,0-.03,0-.05,0-.35-.08-.7-.14-1.04-.22-.12-.02-.26-.05-.38-.08-.33-.08-.66-.15-.98-.22s-.64-.15-.96-.23c-.32-.07-.63-.14-.94-.23-.04-.01-.09-.02-.14-.03-.27-.07-.52-.13-.78-.2-.31-.08-.61-.16-.91-.25-.3-.07-.6-.16-.89-.25-.29-.08-.58-.16-.87-.26-.57-.16-1.14-.34-1.69-.53-.33-.1-.66-.21-.98-.32-.11-.04-.22-.08-.33-.12-.11-.04-.22-.08-.33-.12-.27-.09-.53-.18-.78-.29h-.01c-.26-.09-.51-.19-.77-.3-.29-.11-.57-.23-.84-.34-.22-.09-.42-.18-.63-.27-.21-.09-.42-.19-.62-.28-.05-.02-.1-.04-.15-.06-.18-.08-.36-.17-.53-.25-.18-.09-.35-.17-.53-.26-.36-.16-.7-.34-1.04-.52-.04-.03-.09-.05-.13-.07-.39-.21-.77-.41-1.14-.63-.02-.01-.04-.02-.06-.04-.22-.11-.43-.24-.64-.38-.02-.01-.05-.03-.07-.04-.19-.11-.37-.22-.56-.35-.24-.15-.48-.31-.71-.46-.07-.05-.14-.09-.21-.14-.3-.2-.59-.42-.89-.63-.19-.14-.38-.28-.57-.44-.05-.02-.09-.06-.14-.1-.15-.1-.28-.22-.43-.33-.19-.14-.37-.3-.55-.45-.17-.15-.36-.3-.54-.47-.08-.08-.17-.16-.26-.24-.09-.08-.18-.16-.26-.24-.34-.31-.69-.64-1.02-.98h0c-.18-.18-.34-.35-.49-.52-.09-.08-.16-.17-.24-.26-.12-.13-.24-.26-.35-.39t-.01-.02s-.07-.07-.1-.11c-.09-.09-.17-.18-.25-.27-.04-.05-.07-.09-.11-.14-.12-.14-.24-.28-.34-.42-.15-.17-.28-.35-.42-.52l-.03-.03c-.22-.28-.43-.56-.63-.85-.28-.37-.54-.75-.8-1.14-.08-.13-.16-.26-.24-.39-.03-.03-.05-.07-.07-.1-.11-.17-.22-.34-.33-.51h0c-.11-.19-.22-.38-.32-.55-.11-.19-.22-.38-.32-.56-.17-.28-.32-.57-.48-.86h0c-.12-.23-.23-.46-.35-.69-.07-.14-.15-.28-.22-.42-.04-.09-.09-.18-.13-.28-.11-.23-.22-.46-.33-.7-.17-.37-.33-.73-.49-1.1-.1-.25-.21-.49-.31-.74-.1-.24-.21-.5-.31-.75-.25-.65-.5-1.32-.74-2-.13-.38-.27-.78-.39-1.18-.06-.16-.11-.31-.16-.48-.26-.85-.52-1.72-.77-2.61-.14-.5-.28-1.02-.42-1.54-.27-1.04-.51-2.12-.76-3.24-.14-.64-.28-1.3-.41-1.97-.1-.48-.2-.97-.29-1.47-.03-.17-.06-.35-.1-.52-.12-.67-.24-1.35-.36-2.03-.02-.13-.04-.24-.06-.37-.07-.4-.14-.8-.2-1.21-.07-.47-.16-.95-.23-1.44-.06-.46-.13-.92-.2-1.38-.07-.46-.14-.94-.2-1.41-.15-1.07-.29-2.17-.43-3.28-.12-.96-.23-1.93-.35-2.91-.05-.48-.1-.96-.16-1.44-.04-.39-.08-.79-.13-1.19-.03-.35-.07-.71-.11-1.07-.01-.09-.02-.18-.03-.27-.05-.43-.09-.87-.14-1.31-.04-.44-.09-.88-.13-1.32,0-.04-.01-.07-.01-.11,0-.06,0-.1-.01-.14-.09-.87-.18-1.75-.25-2.63-.01-.06-.01-.12-.02-.18-.04-.45-.08-.9-.12-1.35-.05-.49-.09-.98-.13-1.47,0-.09-.01-.19-.02-.28-1.15-13.8-1.66-27.67-1.66-41.53v-23.51ZM346.29,227.73h.01l46.27,87.4h0s-130.66.01-130.66.01h0c.91-12.19,1.75-22.56,2.82-31.41.1-.79.19-1.56.29-2.31.5-3.89,1.06-7.47,1.69-10.78.14-.72.29-1.43.43-2.13.74-3.49,1.57-6.65,2.55-9.52.19-.57.39-1.13.6-1.68.31-.83.63-1.63.97-2.4.78-1.81,1.65-3.48,2.59-5.02.4-.67.83-1.31,1.27-1.93,1.03-1.44,2.15-2.77,3.38-3.99,11.03-10.99,30.65-13.42,67.79-16.24ZM241.46,199.25c.57-.72,1.12-1.47,1.66-2.24.81-1.16,1.57-2.37,2.31-3.63.24-.41.48-.84.72-1.27.27-.49.53-.98.78-1.48.13-.25.25-.5.38-.76.13-.25.25-.51.37-.76.17-.34.33-.69.49-1.04.42-.93.83-1.89,1.23-2.87.2-.49.4-.99.59-1.49.39,1.01.79,1.99,1.2,2.95.41.95.84,1.89,1.28,2.8.44.9.9,1.79,1.37,2.65.71,1.29,1.45,2.53,2.23,3.72.79,1.19,1.6,2.33,2.46,3.42.86,1.1,1.76,2.14,2.7,3.14,5.34,5.67,12.06,9.91,20.63,13.18-2.52.96-4.88,2.01-7.09,3.15-.89.46-1.75.93-2.58,1.41-1.68.98-3.27,2.02-4.77,3.13-.75.56-1.47,1.13-2.18,1.72-.36.3-.7.6-1.05.9-.69.61-1.35,1.24-2,1.89-.32.32-.64.65-.96.99-.23.25-.47.5-.7.75-.17.19-.34.39-.51.58s-.34.39-.5.59c-.34.4-.66.8-.99,1.21h0c-.85,1.1-1.67,2.23-2.46,3.42h0c-.77,1.2-1.52,2.43-2.23,3.72h0c-.47.87-.92,1.75-1.37,2.65h0c-.44.92-.86,1.85-1.28,2.8-.41.96-.81,1.94-1.2,2.95-.2-.5-.39-1-.59-1.49-.4-.98-.81-1.93-1.23-2.86h0c-.16-.36-.33-.71-.49-1.05-.25-.51-.5-1.02-.75-1.52-.13-.25-.26-.49-.39-.74-.12-.25-.26-.49-.39-.73-.24-.43-.48-.86-.72-1.28-.37-.62-.74-1.24-1.13-1.84h0c-.38-.61-.78-1.2-1.18-1.78-.54-.77-1.09-1.52-1.66-2.24-.86-1.1-1.76-2.14-2.7-3.14-5.34-5.68-12.06-9.92-20.62-13.19,8.56-3.27,15.28-7.51,20.62-13.18.94-1,1.84-2.04,2.7-3.14ZM238.08,315.13h0s-130.66.01-130.66.01h0s46.27-87.41,46.27-87.41h.01c75.46,5.73,78.59,9.85,84.38,87.4ZM238.39,91.23c0,14.79-.58,29.58-1.9,44.31-.05.64-.11,1.27-.17,1.91-.09.92-.18,1.85-.27,2.77-.02.21-.04.41-.06.62-.04.35-.08.68-.11,1.02-.04.36-.07.71-.11,1.07-.03.28-.06.57-.1.85,0,.03,0,.05,0,.08-.04.43-.09.86-.14,1.28-.06.57-.12,1.14-.2,1.69-.01.05-.01.09-.02.14-.01.08-.02.16-.03.24-.04.43-.09.85-.14,1.25-.08.66-.16,1.29-.25,1.92-.01.11-.03.22-.04.32-.1.75-.2,1.5-.3,2.23-.06.38-.12.77-.18,1.15-.05.39-.11.77-.18,1.15-.06.41-.12.82-.19,1.23-.09.54-.18,1.06-.27,1.58-.04.28-.09.57-.15.85-.04.24-.08.47-.13.7-.02.18-.06.36-.09.53-.02.09-.04.18-.05.26-.02.06-.03.11-.04.17-.03.16-.06.33-.09.49-.11.55-.22,1.09-.33,1.62,0,.02-.01.04-.01.06-.14.65-.28,1.28-.43,1.91-.04.2-.08.39-.13.59l-.09.36c-.03.15-.07.3-.11.44-.11.48-.24.96-.36,1.42-.07.31-.15.61-.24.9-.02.08-.04.16-.06.24-.06.22-.13.44-.19.65-.06.21-.12.41-.18.62-.02.08-.05.16-.08.24-.07.24-.14.48-.22.72-.01.05-.03.1-.04.14-.09.28-.18.56-.28.83-.07.23-.14.45-.22.67-.02.05-.04.1-.06.15-.03.11-.07.22-.12.33-.09.28-.19.56-.3.84-.03.09-.06.19-.1.28-.02.05-.04.09-.06.14-.05.13-.1.26-.15.39-.03.07-.05.14-.07.2-.02.06-.04.12-.07.19-.05.13-.11.25-.16.38-.05.13-.11.25-.16.37-.1.25-.21.5-.32.74-.1.25-.21.49-.33.73-.1.24-.22.48-.34.71-.1.24-.22.47-.34.7-.11.23-.23.46-.35.69-.23.45-.48.88-.74,1.31-.03.07-.07.13-.11.2-.21.37-.43.72-.67,1.07-.06.11-.14.22-.21.33-.06.09-.12.19-.19.28-.23.35-.47.7-.71,1.03-.35.49-.72.96-1.09,1.41-.28.33-.56.66-.84.97-.1.12-.2.23-.31.35-.06.06-.11.12-.17.17-.16.17-.32.35-.49.52-.16.17-.33.34-.5.49-.17.18-.34.34-.52.49-.17.17-.35.33-.52.48-.18.15-.36.31-.54.47-.18.15-.36.31-.55.45-.16.14-.32.26-.49.38-.01,0-.02.02-.04.03-.01.01-.02.02-.03.04-.18.14-.37.28-.56.41s-.38.27-.57.4c0,.01-.03.02-.04.03-.08.07-.15.12-.24.17-.32.23-.65.45-.98.65-.08.05-.17.11-.25.16-.29.18-.58.36-.88.53-.26.15-.53.3-.8.45-.02,0-.03.02-.05.03-.2.12-.41.23-.62.33-.34.18-.68.36-1.04.53-.35.18-.7.34-1.06.51-.48.22-.97.43-1.48.63-.5.22-1.01.42-1.53.61-.79.3-1.59.59-2.43.86-.28.1-.56.19-.84.27-.56.19-1.14.36-1.73.52-.29.09-.58.17-.88.25-.3.09-.6.17-.91.25-.26.07-.51.13-.78.2-.05.01-.09.02-.14.03-.31.08-.63.16-.95.23-.31.08-.63.15-.95.22-.32.08-.65.16-.98.23-.66.14-1.32.28-2.01.41-.36.07-.73.15-1.1.22-.68.13-1.35.26-2.04.37-.36.06-.73.12-1.09.18-.11.02-.22.04-.33.06-.62.1-1.25.21-1.9.31-.48.07-.97.14-1.47.22-.28.04-.56.08-.84.11-.78.12-1.58.23-2.39.33-.44.06-.89.12-1.34.18-.7.09-1.41.17-2.14.26-.45.05-.93.11-1.4.16-.11.01-.23.03-.36.04-.12.01-.24.03-.36.05-.24.03-.47.05-.71.08-.88.09-1.77.18-2.68.28-.91.09-1.83.18-2.76.28-.46.04-.94.08-1.42.13-.47.04-.95.09-1.43.13-.48.04-.97.09-1.46.13-.48.05-.98.09-1.48.14h0s.01-.01.01-.01l71.23-134.54v23.45ZM22.89,68.75c0-17.77,10.18-33.23,25.02-40.83,1.32-.68,2.68-1.29,4.07-1.84.69-.28,1.4-.53,2.11-.77.35-.12.71-.24,1.07-.35,3.95-1.23,8.12-1.94,12.45-2.05.39-.01.78-.02,1.18-.02h102.5S22.89,303.19,22.89,303.19V68.75ZM192.54,459.62h-35.67l-17.76-74.03h-.47l-17.91,74.03h-35.67l-28.85-110.97h36.46l14.74,67.53,16.01-67.53h30.75l16.02,67.53,14.74-67.53h36.46l-28.85,110.97ZM323,364.98h-54.05v27.42h43.43v16.49h-43.43v34.4h54.05v16.33h-90.04v-110.97h90.04v16.33ZM443.8,386.86c0,7.45-6.02,13.47-13.48,13.79,7.46.31,13.48,6.34,13.48,13.79v34.24c0,6.02-5.07,10.94-11.1,10.94h-99.55v-110.97h99.55c6.03,0,11.1,5.07,11.1,11.1v27.11ZM477.1,303.19L328.7,22.9h-.01s102.56-.01,102.56-.01c.39,0,.79.01,1.18.02,4.32.11,8.49.82,12.44,2.05.36.11.71.23,1.07.35.71.24,1.41.49,2.1.77,1.39.55,2.75,1.16,4.06,1.84,14.83,7.6,25,23.06,25,40.83v234.44ZM369.13,443.29h38.68v-34.4h-38.68v34.4ZM369.13,392.4h38.68v-27.42h-38.68v27.42Z"/>
  </g>
</svg>