<?xml version="1.0" encoding="UTF-8"?>
<svg id="Layer_1" data-name="Layer 1" xmlns="http://www.w3.org/2000/svg" viewBox="0 0 506.2 409.54">
  <path d="M253.18,376.03c-74.96-2.55-140.9-49.46-192.65-100.18-20.55-20.14-39.38-40.9-57.78-62.91-3.75-4.49-3.59-11.94.09-16.34,14.9-17.81,29.92-34.53,46.15-51.24,33.29-34.28,71.29-66.32,114.21-87.7,21.15-10.54,42.64-17.74,65.9-21.77,4.28-.74,9.71,1.82,9.78,6.78.13,8.96,1.11,20.42-6.87,22.14-58.26,12.6-103.39,59.87-112.25,119.02-10.26,68.56,31.9,133.99,96.1,156.48,11.63,4.07,22.63,6.16,35.52,7.06l-5.86-93.02c-1.13-17.95-16.01-33.94-33.62-35.82l-68.93-7.37c-3.71-.4-6.39-2.4-6.65-5.51-.34-4.02,2.1-6.65,6.26-7.06l63.01-6.21c20.78-2.05,38.73-16.31,40.13-38.2l4.6-72.36,4.67-76.3c.18-2.91,3.04-5.26,5.41-5.48,2.55-.24,6.34,1.88,6.53,4.97l1.78,28.69c66.37,1.96,125.29,38.99,173.2,81.57,22.22,19.75,42.14,40.88,61.87,63.05,1.73,1.94,2.76,4.28,2.36,6.37-.46,2.38-3.04,4.81-5.89,4.81l-92.03.02c-2.58-.46-5.05-2.15-5.43-4.76-9.78-66.09-64.09-117.78-132.15-122.58l5.44,91.11c1.29,21.7,18.75,37.66,39.85,38.86l64.56,6.62c3.09.32,5.28,3.4,5.36,5.97.06,2.18-1.98,5.86-4.93,6.16l-64.81,6.48c-20.49,2.05-38.38,15.88-39.78,37.35l-3.18,48.86-6.04,99.05c-.23,3.74-1.67,6.35-5.2,6.86-3.27.47-6.61-1.61-6.87-5.54l-1.82-27.91Z"/>
  <path d="M293.16,373.77c-5.4.92-10.39-2.28-10.09-7.75l.76-14.4c.16-2.98,2.66-5.95,5.73-6.6,59.11-12.49,104.27-60.3,113.19-120.06.35-2.37,2.98-4.78,5.45-4.78l91.13-.03c2.99,0,5.63,1.5,6.54,4,.85,2.35-.11,4.96-2.02,7.11-55.71,62.75-124.24,127.68-210.69,142.5Z"/>
</svg>